<svg xmlns="http://www.w3.org/2000/svg" width="322.225" height="2" viewBox="0 0 322.225 2">
  <path id="선_9" data-name="선 9" d="M320.225,1h-.005a1,1,0,0,1-1-1,1,1,0,0,1,1-1h.005a1,1,0,0,1,1,1A1,1,0,0,1,320.225,1ZM312.22,1h-.005a1,1,0,0,1-1-1,1,1,0,0,1,1-1h.005a1,1,0,0,1,1,1A1,1,0,0,1,312.22,1Zm-8.005,0h-.005a1,1,0,0,1-1-1,1,1,0,0,1,1-1h.005a1,1,0,0,1,1,1A1,1,0,0,1,304.215,1Zm-8.005,0H296.2a1,1,0,0,1-1-1,1,1,0,0,1,1-1h.006a1,1,0,0,1,1,1A1,1,0,0,1,296.209,1ZM288.2,1H288.2a1,1,0,0,1-1-1,1,1,0,0,1,1-1h.005a1,1,0,0,1,1,1A1,1,0,0,1,288.2,1ZM280.2,1h-.005a1,1,0,0,1-1-1,1,1,0,0,1,1-1h.005a1,1,0,0,1,1,1A1,1,0,0,1,280.2,1Zm-8.005,0h-.005a1,1,0,0,1-1-1,1,1,0,0,1,1-1h.005a1,1,0,0,1,1,1A1,1,0,0,1,272.193,1Zm-8.005,0h-.006a1,1,0,0,1-1-1,1,1,0,0,1,1-1h.006a1,1,0,0,1,1,1A1,1,0,0,1,264.187,1Zm-8.006,0h-.005a1,1,0,0,1-1-1,1,1,0,0,1,1-1h.005a1,1,0,0,1,1,1A1,1,0,0,1,256.181,1Zm-8.005,0h-.005a1,1,0,0,1-1-1,1,1,0,0,1,1-1h.005a1,1,0,0,1,1,1A1,1,0,0,1,248.176,1Zm-8.005,0h-.006a1,1,0,0,1-1-1,1,1,0,0,1,1-1h.006a1,1,0,0,1,1,1A1,1,0,0,1,240.171,1Zm-8.006,0h-.005a1,1,0,0,1-1-1,1,1,0,0,1,1-1h.005a1,1,0,0,1,1,1A1,1,0,0,1,232.165,1ZM224.16,1h-.005a1,1,0,0,1-1-1,1,1,0,0,1,1-1h.005a1,1,0,0,1,1,1A1,1,0,0,1,224.16,1Zm-8.005,0h-.006a1,1,0,0,1-1-1,1,1,0,0,1,1-1h.006a1,1,0,0,1,1,1A1,1,0,0,1,216.154,1Zm-8.006,0h-.005a1,1,0,0,1-1-1,1,1,0,0,1,1-1h.005a1,1,0,0,1,1,1A1,1,0,0,1,208.148,1Zm-8.005,0h-.006a1,1,0,0,1-1-1,1,1,0,0,1,1-1h.006a1,1,0,0,1,1,1A1,1,0,0,1,200.143,1Zm-8.006,0h-.005a1,1,0,0,1-1-1,1,1,0,0,1,1-1h.005a1,1,0,0,1,1,1A1,1,0,0,1,192.137,1Zm-8.005,0h-.006a1,1,0,0,1-1-1,1,1,0,0,1,1-1h.006a1,1,0,0,1,1,1A1,1,0,0,1,184.132,1Zm-8.006,0h-.005a1,1,0,0,1-1-1,1,1,0,0,1,1-1h.005a1,1,0,0,1,1,1A1,1,0,0,1,176.126,1Zm-8.005,0h-.006a1,1,0,0,1-1-1,1,1,0,0,1,1-1h.006a1,1,0,0,1,1,1A1,1,0,0,1,168.121,1Zm-8.006,0h-.005a1,1,0,0,1-1-1,1,1,0,0,1,1-1h.005a1,1,0,0,1,1,1A1,1,0,0,1,160.115,1ZM152.11,1H152.1a1,1,0,0,1-1-1,1,1,0,0,1,1-1h.005a1,1,0,0,1,1,1A1,1,0,0,1,152.11,1ZM144.1,1H144.1a1,1,0,0,1-1-1,1,1,0,0,1,1-1h.006a1,1,0,0,1,1,1A1,1,0,0,1,144.1,1ZM136.1,1h-.005a1,1,0,0,1-1-1,1,1,0,0,1,1-1h.005a1,1,0,0,1,1,1A1,1,0,0,1,136.1,1Zm-8.005,0h-.006a1,1,0,0,1-1-1,1,1,0,0,1,1-1h.006a1,1,0,0,1,1,1A1,1,0,0,1,128.094,1Zm-8.006,0h-.006a1,1,0,0,1-1-1,1,1,0,0,1,1-1h.006a1,1,0,0,1,1,1A1,1,0,0,1,120.088,1Zm-8.006,0h-.005a1,1,0,0,1-1-1,1,1,0,0,1,1-1h.005a1,1,0,0,1,1,1A1,1,0,0,1,112.082,1Zm-8.005,0h-.006a1,1,0,0,1-1-1,1,1,0,0,1,1-1h.006a1,1,0,0,1,1,1A1,1,0,0,1,104.077,1ZM96.072,1h-.006a1,1,0,0,1-1-1,1,1,0,0,1,1-1h.006a1,1,0,0,1,1,1A1,1,0,0,1,96.072,1ZM88.066,1h-.006a1,1,0,0,1-1-1,1,1,0,0,1,1-1h.006a1,1,0,0,1,1,1A1,1,0,0,1,88.066,1ZM80.061,1h-.006a1,1,0,0,1-1-1,1,1,0,0,1,1-1h.006a1,1,0,0,1,1,1A1,1,0,0,1,80.061,1ZM72.055,1h-.006a1,1,0,0,1-1-1,1,1,0,0,1,1-1h.006a1,1,0,0,1,1,1A1,1,0,0,1,72.055,1ZM64.049,1h-.006a1,1,0,0,1-1-1,1,1,0,0,1,1-1h.006a1,1,0,0,1,1,1A1,1,0,0,1,64.049,1ZM56.044,1h-.005a1,1,0,0,1-1-1,1,1,0,0,1,1-1h.005a1,1,0,0,1,1,1A1,1,0,0,1,56.044,1ZM48.039,1h-.006a1,1,0,0,1-1-1,1,1,0,0,1,1-1h.006a1,1,0,0,1,1,1A1,1,0,0,1,48.039,1ZM40.033,1h-.006a1,1,0,0,1-1-1,1,1,0,0,1,1-1h.006a1,1,0,0,1,1,1A1,1,0,0,1,40.033,1ZM32.028,1h-.006a1,1,0,0,1-1-1,1,1,0,0,1,1-1h.006a1,1,0,0,1,1,1A1,1,0,0,1,32.028,1ZM24.022,1h-.005a1,1,0,0,1-1-1,1,1,0,0,1,1-1h.005a1,1,0,0,1,1,1A1,1,0,0,1,24.022,1ZM16.017,1h-.006a1,1,0,0,1-1-1,1,1,0,0,1,1-1h.006a1,1,0,0,1,1,1A1,1,0,0,1,16.017,1ZM8.011,1H8.005a1,1,0,0,1-1-1,1,1,0,0,1,1-1h.005a1,1,0,0,1,1,1A1,1,0,0,1,8.011,1ZM.005,1H0A1,1,0,0,1-1,0,1,1,0,0,1,0-1H.005a1,1,0,0,1,1,1A1,1,0,0,1,.005,1Z" transform="translate(1 1)" fill="#efefef"/>
</svg>
