<svg width="20" height="20" viewBox="0 0 20 20" fill="none" xmlns="http://www.w3.org/2000/svg">
<path fill-rule="evenodd" clip-rule="evenodd" d="M9.84665 7.93555C8.79656 7.93555 7.94336 8.78874 7.94336 9.8388C7.94336 10.8889 8.79656 11.7421 9.84665 11.7421C10.8968 11.7421 11.7499 10.8889 11.7499 9.8388C11.7499 8.78874 10.8968 7.93555 9.84665 7.93555Z" fill="#919191"/>
<path fill-rule="evenodd" clip-rule="evenodd" d="M9.84633 13.1202C8.00867 13.1202 6.5648 11.6107 6.5648 9.8387C6.5648 8.06668 8.07431 6.55718 9.84633 6.55718C11.6184 6.55718 13.1278 8.06668 13.1278 9.8387C13.1278 11.6107 11.684 13.1202 9.84633 13.1202ZM17.0657 8.9855C15.3592 6.36028 12.6685 4.78516 9.84633 4.78516C7.02421 4.78516 4.33336 6.36028 2.62697 8.9855C2.29882 9.51055 2.29882 10.1669 2.62697 10.6919C4.33336 13.3171 7.02421 14.8922 9.84633 14.8922C12.6685 14.8922 15.3592 13.3171 17.0657 10.6919C17.4594 10.1669 17.4594 9.51055 17.0657 8.9855Z" fill="#919191"/>
</svg>
