<svg width="20" height="20" viewBox="0 0 20 20" fill="none" xmlns="http://www.w3.org/2000/svg">
<path d="M11.8683 5.07188C11.2578 4.9253 10.6338 4.83789 9.99977 4.83789C7.16761 4.83789 4.48948 6.35817 2.7258 8.89106C2.26588 9.55135 2.26588 10.4476 2.7258 11.1079C3.15613 11.7258 3.64226 12.2806 4.17009 12.7708L11.8683 5.07188Z" fill="#919191"/>
<path d="M17.2747 8.89207C16.5687 7.8781 15.7115 7.03559 14.76 6.38203L16.4874 4.65465C16.8027 4.3393 16.8027 3.82829 16.4874 3.5136C16.172 3.19893 15.661 3.19825 15.3463 3.5136L3.51288 15.3457C3.19753 15.661 3.19753 16.1721 3.51288 16.4868C3.67022 16.6441 3.87732 16.7234 4.08375 16.7234C4.29017 16.7234 4.4966 16.6448 4.65461 16.4868L6.70137 14.44C7.7429 14.9046 8.85705 15.1614 10.0001 15.1614C12.8329 15.1614 15.5111 13.6411 17.2747 11.1083C17.7339 10.4487 17.7339 9.55238 17.2747 8.89207ZM9.99944 12.6723C9.55634 12.6723 9.14281 12.5572 8.77637 12.3643L12.3635 8.77709C12.5566 9.14354 12.6715 9.55638 12.6715 9.99952C12.6715 11.4741 11.4727 12.6723 9.99944 12.6723Z" fill="#919191"/>
</svg>
