<svg xmlns="http://www.w3.org/2000/svg" width="28.999" height="25.489" viewBox="0 0 28.999 25.489">
  <g id="그룹_26" data-name="그룹 26" transform="translate(-422.125 -132.04)">
    <g id="그룹_25" data-name="그룹 25">
      <g id="그룹_21" data-name="그룹 21">
        <path id="패스_10" data-name="패스 10" d="M447.91,157.529H425.339a3.218,3.218,0,0,1-3.214-3.214V137.954a3.218,3.218,0,0,1,3.214-3.214H447.91a3.218,3.218,0,0,1,3.214,3.214v16.361A3.218,3.218,0,0,1,447.91,157.529Zm-22.571-21.208a1.634,1.634,0,0,0-1.634,1.633v16.361a1.635,1.635,0,0,0,1.634,1.634H447.91a1.635,1.635,0,0,0,1.634-1.634V137.954a1.635,1.635,0,0,0-1.634-1.633Z" fill="#8ea3bc"/>
      </g>
      <g id="그룹_22" data-name="그룹 22">
        <rect id="사각형_14" data-name="사각형 14" width="1.58" height="3.118" transform="translate(428.598 132.04)" fill="#8ea3bc"/>
      </g>
      <g id="그룹_23" data-name="그룹 23">
        <rect id="사각형_15" data-name="사각형 15" width="26.899" height="6.903" transform="translate(423.435 136.049)" fill="#8ea3bc"/>
      </g>
      <g id="그룹_24" data-name="그룹 24">
        <rect id="사각형_16" data-name="사각형 16" width="1.58" height="3.118" transform="translate(442.879 132.04)" fill="#8ea3bc"/>
      </g>
    </g>
  </g>
</svg>
