<svg xmlns="http://www.w3.org/2000/svg" width="23.469" height="25.33" viewBox="0 0 23.469 25.33">
  <g id="그룹_18" data-name="그룹 18" transform="translate(-1589.192 -147.063)">
    <path id="Vector" d="M1592.35,166.276h11.365a3.306,3.306,0,0,0,3.158-3.431V150.494a3.306,3.306,0,0,0-3.158-3.431H1592.35a3.306,3.306,0,0,0-3.158,3.431v12.351A3.306,3.306,0,0,0,1592.35,166.276Z" fill="#fff"/>
    <path id="Vector_2" data-name="Vector 2" d="M1605.716,169.649h-10.671a3.239,3.239,0,0,0,3.093,2.744H1609.5a3.306,3.306,0,0,0,3.157-3.43V156.611a3.379,3.379,0,0,0-2.525-3.362v11.6A4.631,4.631,0,0,1,1605.716,169.649Z" fill="#fff"/>
  </g>
</svg>
