<svg xmlns="http://www.w3.org/2000/svg" width="28.999" height="25.489" viewBox="0 0 28.999 25.489">
  <g id="그룹_60" data-name="그룹 60" transform="translate(-1684.093 -111.178)">
    <g id="그룹_59" data-name="그룹 59">
      <g id="그룹_55" data-name="그룹 55">
        <path id="패스_7" data-name="패스 7" d="M1709.878,136.667h-22.571a3.218,3.218,0,0,1-3.214-3.214V117.092a3.218,3.218,0,0,1,3.214-3.214h22.571a3.218,3.218,0,0,1,3.214,3.214v16.361A3.218,3.218,0,0,1,1709.878,136.667Zm-22.571-21.209a1.635,1.635,0,0,0-1.634,1.634v16.361a1.636,1.636,0,0,0,1.634,1.634h22.571a1.635,1.635,0,0,0,1.634-1.634V117.092a1.634,1.634,0,0,0-1.634-1.634Z" fill="#6b37fb"/>
      </g>
      <g id="그룹_56" data-name="그룹 56">
        <rect id="사각형_14" data-name="사각형 14" width="1.58" height="3.118" transform="translate(1690.566 111.178)" fill="#6b37fb"/>
      </g>
      <g id="그룹_57" data-name="그룹 57">
        <rect id="사각형_15" data-name="사각형 15" width="26.899" height="6.903" transform="translate(1685.403 115.186)" fill="#6b37fb"/>
      </g>
      <g id="그룹_58" data-name="그룹 58">
        <rect id="사각형_16" data-name="사각형 16" width="1.58" height="3.118" transform="translate(1704.847 111.178)" fill="#6b37fb"/>
      </g>
    </g>
  </g>
</svg>
