<svg xmlns="http://www.w3.org/2000/svg" width="13.878" height="8.235" viewBox="0 0 13.878 8.235">
  <g id="그룹_35" data-name="그룹 35" transform="translate(-428.24 -259.737)">
    <g id="그룹_34" data-name="그룹 34">
      <g id="그룹_30" data-name="그룹 30">
        <g id="그룹_29" data-name="그룹 29">
          <g id="그룹_28" data-name="그룹 28">
            <path id="패스_11" data-name="패스 11" d="M441.384,261.6l-5.642,5.642a.8.8,0,0,1-1.127,0l-5.642-5.642a.8.8,0,0,1,0-1.127h0a.8.8,0,0,1,1.127,0l4.515,4.515a.8.8,0,0,0,1.127,0l4.515-4.515a.8.8,0,0,1,1.127,0h0A.8.8,0,0,1,441.384,261.6Z" fill="#8ea3bc"/>
            <path id="패스_11_-_윤곽선" data-name="패스 11 - 윤곽선" d="M429.536,259.737a1.288,1.288,0,0,1,.917.38l4.515,4.515a.3.3,0,0,0,.42,0l4.515-4.515a1.3,1.3,0,0,1,1.834,1.834l-5.642,5.642a1.3,1.3,0,0,1-1.834,0l-5.642-5.642a1.3,1.3,0,0,1,.917-2.214Zm5.642,5.981a1.288,1.288,0,0,1-.917-.38l-4.515-4.515a.3.3,0,0,0-.42.42l5.642,5.642a.3.3,0,0,0,.42,0l5.642-5.642a.3.3,0,0,0-.42-.42l-4.515,4.515A1.288,1.288,0,0,1,435.178,265.718Z" fill="#8ea3bc"/>
          </g>
        </g>
      </g>
    </g>
  </g>
</svg>
