<?xml version="1.0" encoding="UTF-8"?>
<svg id="Main_1" data-name="Main 1" xmlns="http://www.w3.org/2000/svg" version="1.1" xmlns:xlink="http://www.w3.org/1999/xlink" viewBox="0 0 1649.8 547">
  <defs>
    <style>
      .cls-1 {
        fill: url(#linear-gradient);
      }

      .cls-1, .cls-2, .cls-3, .cls-4 {
        stroke-width: 0px;
      }

      .cls-5 {
        fill: #6b37fb;
      }

      .cls-5, .cls-6 {
        stroke: #221815;
        stroke-miterlimit: 10;
        stroke-width: .9px;
      }

      .cls-2 {
        fill: url(#linear-gradient-2);
      }

      .cls-3 {
        fill: url(#linear-gradient-3);
      }

      .cls-4 {
        fill: #fff;
      }

      .cls-6 {
        fill: #1e1b09;
      }
    </style>
    <linearGradient id="linear-gradient" x1="3106.4" y1="-1423.7" x2="3822.6" y2="-1423.7" gradientUnits="userSpaceOnUse">
      <stop offset="0" stop-color="#ba76f2"/>
      <stop offset="1" stop-color="#6b37fb"/>
    </linearGradient>
    <linearGradient id="linear-gradient-2" x1="-3.2" y1="-1414.9" x2="455.1" y2="-1414.9" xlink:href="#linear-gradient"/>
    <linearGradient id="linear-gradient-3" x1="21.2" y1="280.9" x2="479.5" y2="280.9" xlink:href="#linear-gradient"/>
  </defs>
  <g>
    <path class="cls-6" d="M536.6-1549.1v-37.4h52.9v-24.4h48.1v24.4h53.7v37.4h-154.7ZM543.3-1484.7c0-35.5,30.4-55.9,71.4-55.9s57,12.2,67,34.4v-14.8h28.9v-76.2h44.4v166.6h-44.4v-48.1h-24.8c-3,32.2-32.6,50-71.1,50s-71.4-20-71.4-55.9ZM555.5-1383.7v-35.9h266.1v88.1h-216.9v16.7h223.9v35.9h-273.2v-88.1h217.3v-16.7h-217.3ZM588.5-1484.7c0,13,10.4,20.7,26.3,20.7s26.3-7.8,26.3-20.7-10.4-20.4-26.3-20.4-26.3,7.4-26.3,20.4ZM775.4-1430.7v-168h46.3v168h-46.3Z"/>
    <path class="cls-6" d="M1081.5-1593.5v300.5h-166.2v-300.5h166.2ZM962.7-1337.4h71.4v-211.3h-71.4v211.3ZM1191.8-1598.7v319.8h-48.9v-319.8h48.9Z"/>
    <path class="cls-6" d="M1478.6-1468.4v41.8h-193.2v-166.9h174v41.8h-124.7v83.3h144ZM1555.3-1392.6v117h-49.2v-72.9h-217.3v-44h266.5ZM1596.7-1528v46.6h-41.5v72.9h-49.2v-190.2h49.2v70.7h41.5Z"/>
  </g>
  <g>
    <path class="cls-1" d="M3822.6-1445.3c0-197.8-160.3-358.1-358.1-358.1s-358.1,160.3-358.1,358.1,160.3,358.1,358.1,358.1,103.1-11.5,148.3-32.1l183.7,75.2-35.6-200.1c39-57.3,61.7-126.5,61.7-201ZM3616.2-1389.1h-98.1v98.1h-107.2v-98.1h-98.1v-107.2h98.1v-98.1h107.2v98.1h98.1v107.2Z"/>
    <polygon class="cls-4" points="3518.1 -1594.4 3410.9 -1594.4 3410.9 -1496.3 3312.8 -1496.3 3312.8 -1389.1 3410.9 -1389.1 3410.9 -1291 3518.1 -1291 3518.1 -1389.1 3616.2 -1389.1 3616.2 -1496.3 3518.1 -1496.3 3518.1 -1594.4"/>
  </g>
  <g>
    <path class="cls-2" d="M455.1-1428.7c0-126.6-102.6-229.1-229.1-229.1S-3.2-1555.3-3.2-1428.7s102.6,229.1,229.1,229.1,66-7.3,94.9-20.5l117.5,48.1-22.8-128.1c24.9-36.7,39.5-81,39.5-128.7ZM323.1-1392.8h-62.8v62.8h-68.6v-62.8h-62.8v-68.6h62.8v-62.8h68.6v62.8h62.8v68.6Z"/>
    <polygon class="cls-4" points="260.3 -1524.2 191.7 -1524.2 191.7 -1461.4 128.9 -1461.4 128.9 -1392.8 191.7 -1392.8 191.7 -1330 260.3 -1330 260.3 -1392.8 323.1 -1392.8 323.1 -1461.4 260.3 -1461.4 260.3 -1524.2"/>
  </g>
  <g>
    <path class="cls-5" d="M561,163.7v-37.4h52.9v-24.4h48.1v24.4h53.7v37.4h-154.7ZM567.7,228.1c0-35.5,30.4-55.9,71.4-55.9s57,12.2,67,34.4v-14.8h28.9v-76.2h44.4v166.6h-44.4v-48.1h-24.8c-3,32.2-32.6,50-71.1,50s-71.4-20-71.4-55.9ZM579.9,329.2v-35.9h266.1v88.1h-216.9v16.7h223.9v35.9h-273.2v-88.1h217.3v-16.7h-217.3ZM612.9,228.1c0,13,10.4,20.7,26.3,20.7s26.3-7.8,26.3-20.7-10.4-20.4-26.3-20.4-26.3,7.4-26.3,20.4ZM799.8,282.2V114.1h46.3v168h-46.3Z"/>
    <path class="cls-5" d="M1105.9,119.3v300.5h-166.2V119.3h166.2ZM987.1,375.4h71.4v-211.3h-71.4v211.3ZM1216.2,114.1v319.8h-48.9V114.1h48.9Z"/>
    <path class="cls-5" d="M1503,244.4v41.8h-193.2V119.3h174v41.8h-124.7v83.3h144ZM1579.7,320.3v117h-49.2v-72.9h-217.3v-44h266.5ZM1621.1,184.8v46.6h-41.5v72.9h-49.2V114.1h49.2v70.7h41.5Z"/>
  </g>
  <g>
    <path class="cls-3" d="M479.5,267.1c0-126.6-102.6-229.1-229.1-229.1S21.2,140.6,21.2,267.1s102.6,229.1,229.1,229.1,66-7.3,94.9-20.5l117.5,48.1-22.8-128.1c24.9-36.7,39.5-81,39.5-128.7ZM347.5,303h-62.8v62.8h-68.6v-62.8h-62.8v-68.6h62.8v-62.8h68.6v62.8h62.8v68.6Z"/>
    <polygon class="cls-4" points="284.7 171.7 216.1 171.7 216.1 234.4 153.3 234.4 153.3 303 216.1 303 216.1 365.8 284.7 365.8 284.7 303 347.5 303 347.5 234.4 284.7 234.4 284.7 171.7"/>
  </g>
</svg>