<svg width="60" height="60" viewBox="0 0 60 60" fill="none" xmlns="http://www.w3.org/2000/svg">
<rect x="0.5" y="0.5" width="59" height="59" rx="29.5" fill="white"/>
<rect x="0.5" y="0.5" width="59" height="59" rx="29.5" stroke="#D6D6D6"/>
<path fill-rule="evenodd" clip-rule="evenodd" d="M39.0001 29.8658C39.0001 29.2508 38.9448 28.6595 38.8423 28.0918H30.6738V31.4467H35.3417C35.1405 32.5309 34.5294 33.4494 33.6109 34.0644V36.2405H36.4138C38.0538 34.7307 39.0001 32.5072 39.0001 29.8658Z" fill="#4577BC"/>
<path fill-rule="evenodd" clip-rule="evenodd" d="M30.6724 38.3454C33.0142 38.3454 34.9775 37.5688 36.4124 36.2441L33.6094 34.068C32.8327 34.5885 31.8393 34.8959 30.6724 34.8959C28.4135 34.8959 26.5015 33.3702 25.8195 31.3203H22.9219V33.5674C24.349 36.402 27.2821 38.3454 30.6724 38.3454Z" fill="#36A052"/>
<path fill-rule="evenodd" clip-rule="evenodd" d="M25.8201 31.3201C25.6466 30.7997 25.5481 30.2439 25.5481 29.6722C25.5481 29.1005 25.6466 28.5447 25.8201 28.0243V25.7773H22.9225C22.3351 26.9482 22 28.2727 22 29.6723C22 31.0717 22.3351 32.3964 22.9225 33.5672L25.8201 31.3201Z" fill="#EEB619"/>
<path fill-rule="evenodd" clip-rule="evenodd" d="M30.6724 24.4495C31.9459 24.4495 33.0891 24.8871 33.9881 25.7465L36.4755 23.259C34.9736 21.8594 33.0103 21 30.6724 21C27.2821 21 24.349 22.9437 22.9219 25.7781L25.8194 28.0252C26.5015 25.9752 28.4135 24.4495 30.6724 24.4495Z" fill="#DA4234"/>
</svg>
