<?xml version="1.0" encoding="UTF-8"?>
<svg id="_레이어_1" data-name="레이어 1" xmlns="http://www.w3.org/2000/svg" viewBox="0 0 60 60">
  <defs>
    <style>
      .cls-1 {
        fill: #000;
      }

      .cls-1, .cls-2 {
        stroke-width: 0px;
      }

      .cls-3 {
        fill: none;
        stroke: #d6d6d6;
      }

      .cls-2 {
        fill: #fff;
      }
    </style>
  </defs>
  <path class="cls-2" d="M30,.5h0c16.29,0,29.5,13.21,29.5,29.5h0c0,16.29-13.21,29.5-29.5,29.5h0C13.71,59.5.5,46.29.5,30h0C.5,13.71,13.71.5,30,.5Z"/>
  <path class="cls-3" d="M30,.5h0c16.29,0,29.5,13.21,29.5,29.5h0c0,16.29-13.21,29.5-29.5,29.5h0C13.71,59.5.5,46.29.5,30h0C.5,13.71,13.71.5,30,.5Z"/>
  <path class="cls-1" d="M36.27,28.58c0-1.62.73-2.85,2.21-3.75-.83-1.19-2.09-1.84-3.75-1.97-1.57-.12-3.29.92-3.92.92-.66,0-2.19-.87-3.38-.87-2.47.04-5.09,1.97-5.09,5.89,0,1.16.21,2.36.64,3.59.57,1.62,2.61,5.61,4.74,5.54,1.11-.03,1.9-.79,3.35-.79s2.14.79,3.38.79c2.15-.03,4-3.65,4.54-5.28-2.88-1.36-2.73-3.98-2.73-4.07h0ZM33.77,21.32c1.21-1.43,1.1-2.74,1.06-3.21-1.07.06-2.3.73-3,1.54-.77.88-1.23,1.96-1.13,3.18,1.15.09,2.21-.5,3.07-1.52Z"/>
</svg>